<svg id="Logo" xmlns="http://www.w3.org/2000/svg" viewBox="0 0 325.42 82.88"><title>InboundRx_Logo</title><path d="M305.75,55.17l5.57-15.89H299.8l-2.74,8s-4.45-3.62-8.74-6.79A22.57,22.57,0,0,0,299,36.34q6-4.73,6-15t-5.8-15.16q-5.8-4.93-18.51-4.93h-19.5V54h12.31V41.79l18.44,16.6-9.75,24.5,13.39-3,5.3-13.24,10.72,9.61,13.85-3.14ZM273.48,11.86h7q6.08,0,9,2t2.88,6.79q0,4.77-2.21,7.26t-8.37,2.49h-8.29V11.86Z" style="fill:#e26932"/><path d="M1.82,10.73A6.06,6.06,0,0,1,0,6.27,6.06,6.06,0,0,1,1.82,1.82,6.06,6.06,0,0,1,6.27,0a6.06,6.06,0,0,1,4.46,1.82,6.06,6.06,0,0,1,1.82,4.46,6.06,6.06,0,0,1-1.82,4.46,6.06,6.06,0,0,1-4.46,1.82A6.06,6.06,0,0,1,1.82,10.73Z" style="fill:#e26932"/><rect x="0.93" y="15.61" width="10.69" height="38.36" style="fill:#fff"/><path d="M25.67,32.58V54H15V15.61H25.67v4.28A15,15,0,0,1,36.57,15a13.51,13.51,0,0,1,10.16,4.28q4.1,4.28,4.1,11.41V54H40.14V32.3q0-8.84-6.49-8.84a7.78,7.78,0,0,0-5.6,2.32Q25.66,28.09,25.67,32.58Z" style="fill:#fff"/><path d="M76.21,15A16.34,16.34,0,0,1,88.4,20.43q5.2,5.45,5.2,14a20.29,20.29,0,0,1-5.35,14.33q-5.35,5.77-12.16,5.77a13.88,13.88,0,0,1-11.3-5.63V54H54.11V1.07H64.81V19.89A14.63,14.63,0,0,1,76.21,15ZM64.66,34.83a11.12,11.12,0,0,0,2.6,7.63,8.1,8.1,0,0,0,6.31,3,8.64,8.64,0,0,0,6.49-3,10.64,10.64,0,0,0,2.78-7.59,11.47,11.47,0,0,0-2.71-7.77A8.3,8.3,0,0,0,73.65,24a8,8,0,0,0-6.38,3.1A11.67,11.67,0,0,0,64.66,34.83Z" style="fill:#fff"/><path d="M136.74,34.79a19,19,0,0,1-5.77,14,19.8,19.8,0,0,1-14.51,5.7,19.8,19.8,0,0,1-14.51-5.7,19,19,0,0,1-5.77-14,19.09,19.09,0,0,1,5.77-14.08A19.74,19.74,0,0,1,116.46,15,19.75,19.75,0,0,1,131,20.71,19.09,19.09,0,0,1,136.74,34.79Zm-29.8,0a11,11,0,0,0,2.67,7.66,9.4,9.4,0,0,0,13.69,0A11,11,0,0,0,126,34.79a11.13,11.13,0,0,0-2.67-7.7,9.32,9.32,0,0,0-13.69,0A11.13,11.13,0,0,0,106.94,34.79Z" style="fill:#fff"/><path d="M165.12,36.29V15.61h10.77V54H165.12V48.91q-4,5.63-10.3,5.63a15,15,0,0,1-10.59-4q-4.28-4-4.28-11.73V15.61h10.77V36.5q0,8.84,6.49,8.84A7.66,7.66,0,0,0,162.76,43Q165.12,40.71,165.12,36.29Z" style="fill:#fff"/><path d="M189.86,32.58V54H179.16V15.61h10.69v4.28A15,15,0,0,1,200.76,15a13.51,13.51,0,0,1,10.16,4.28q4.1,4.28,4.1,11.41V54H204.33V32.3q0-8.84-6.49-8.84a7.78,7.78,0,0,0-5.6,2.32Q189.85,28.09,189.86,32.58Z" style="fill:#fff"/><path d="M235.23,54.54q-6.81,0-12.16-5.77a20.29,20.29,0,0,1-5.35-14.33q0-8.56,5.21-14A16.33,16.33,0,0,1,235.13,15a14.63,14.63,0,0,1,11.41,4.92V1.07h10.69V54H246.53V48.91A13.88,13.88,0,0,1,235.23,54.54ZM228.5,34.86a10.64,10.64,0,0,0,2.78,7.59,8.64,8.64,0,0,0,6.49,3,8.11,8.11,0,0,0,6.31-3,11.13,11.13,0,0,0,2.6-7.63,11.68,11.68,0,0,0-2.6-7.77,8,8,0,0,0-6.38-3.1,8.3,8.3,0,0,0-6.49,3.14A11.47,11.47,0,0,0,228.5,34.86Z" style="fill:#fff"/></svg>